<?xml version="1.0" encoding="UTF-8"?>
<svg width="52px" height="52px" viewBox="0 0 52 52" version="1.1" xmlns="http://www.w3.org/2000/svg" xmlns:xlink="http://www.w3.org/1999/xlink">
    <!-- Generator: Sketch 49 (51002) - http://www.bohemiancoding.com/sketch -->
    <title>报单</title>
    <desc>Created with Sketch.</desc>
    <defs>
        <path d="M14,36.5 C12.622,36.5 11.5,37.622 11.5,39 C11.5,40.378 12.622,41.5 14,41.5 C15.378,41.5 16.5,40.378 16.5,39 C16.5,37.622 15.378,36.5 14,36.5 M14,44.5 C10.966,44.5 8.5,42.034 8.5,39 C8.5,35.966 10.966,33.5 14,33.5 C17.034,33.5 19.5,35.966 19.5,39 C19.5,42.034 17.034,44.5 14,44.5" id="path-1"></path>
        <filter x="-18.2%" y="-9.1%" width="136.4%" height="136.4%" filterUnits="objectBoundingBox" id="filter-2">
            <feOffset dx="0" dy="1" in="SourceAlpha" result="shadowOffsetOuter1"></feOffset>
            <feGaussianBlur stdDeviation="0.5" in="shadowOffsetOuter1" result="shadowBlurOuter1"></feGaussianBlur>
            <feColorMatrix values="0 0 0 0 0.520195578   0 0 0 0 0.520195578   0 0 0 0 0.520195578  0 0 0 0.202219203 0" type="matrix" in="shadowBlurOuter1"></feColorMatrix>
        </filter>
        <path d="M36,36.5 C34.622,36.5 33.5,37.622 33.5,39 C33.5,40.378 34.622,41.5 36,41.5 C37.378,41.5 38.5,40.378 38.5,39 C38.5,37.622 37.378,36.5 36,36.5 M36,44.5 C32.966,44.5 30.5,42.034 30.5,39 C30.5,35.966 32.966,33.5 36,33.5 C39.034,33.5 41.5,35.966 41.5,39 C41.5,42.034 39.034,44.5 36,44.5" id="path-3"></path>
        <filter x="-18.2%" y="-9.1%" width="136.4%" height="136.4%" filterUnits="objectBoundingBox" id="filter-4">
            <feOffset dx="0" dy="1" in="SourceAlpha" result="shadowOffsetOuter1"></feOffset>
            <feGaussianBlur stdDeviation="0.5" in="shadowOffsetOuter1" result="shadowBlurOuter1"></feGaussianBlur>
            <feColorMatrix values="0 0 0 0 0.520195578   0 0 0 0 0.520195578   0 0 0 0 0.520195578  0 0 0 0.202219203 0" type="matrix" in="shadowBlurOuter1"></feColorMatrix>
        </filter>
    </defs>
    <g id="Page-1" stroke="none" stroke-width="1" fill="none" fill-rule="evenodd">
        <g id="图标" transform="translate(-437.000000, -1866.000000)">
            <g id="tab" transform="translate(92.000000, 1866.000000)">
                <g id="Group-4" transform="translate(345.000000, 0.000000)">
                    <g id="Group-3" transform="translate(0.000000, 0.000000)">
                        <g id="工具-copy-3" transform="translate(3.000000, 6.000000)">
                            <g id="Group-13" transform="translate(0.000000, 0.000000)">
                                <path d="M22,19 C20.894,19 20,18.106 20,17 C20,15.894 20.894,15 22,15 L28,15 C29.106,15 30,15.894 30,17 C30,18.106 29.106,19 28,19 L22,19 Z" id="Fill-2" fill="#FF4036"></path>
                                <path d="M9.625,9.5 C8.519,9.5 7.625,8.606 7.625,7.5 C7.625,6.394 8.519,5.5 9.625,5.5 L37.625,5.5 C38.731,5.5 39.625,6.394 39.625,7.5 C39.625,8.606 38.731,9.5 37.625,9.5 L9.625,9.5 Z" id="Fill-4" fill="#FF4036"></path>
                                <path d="M35.205,31.5 L14.449,31.5 C9.531,31.5 5.531,27.462 5.531,22.5 L5.531,6 C5.531,4.916 4.861,4 4.071,4 L2.125,4 C1.019,4 0.125,3.106 0.125,2 C0.125,0.894 1.019,0 2.125,0 L4.071,0 C7.081,0 9.531,2.692 9.531,6 L9.531,22.5 C9.531,25.258 11.739,27.5 14.449,27.5 L35.205,27.5 C37.917,27.5 40.125,25.258 40.125,22.5 L40.125,14.062 C40.125,12.958 41.019,12.062 42.125,12.062 C43.231,12.062 44.125,12.958 44.125,14.062 L44.125,22.5 C44.125,27.462 40.123,31.5 35.205,31.5" id="Fill-6" fill="#FF4036"></path>
                                <g id="Fill-8">
                                    <use fill="black" fill-opacity="1" filter="url(#filter-2)" xlink:href="#path-1"></use>
                                    <use fill="#FF4036" fill-rule="evenodd" xlink:href="#path-1"></use>
                                </g>
                                <g id="Fill-10">
                                    <use fill="black" fill-opacity="1" filter="url(#filter-4)" xlink:href="#path-3"></use>
                                    <use fill="#FF4036" fill-rule="evenodd" xlink:href="#path-3"></use>
                                </g>
                            </g>
                        </g>
                    </g>
                </g>
            </g>
        </g>
    </g>
</svg>