<?xml version="1.0" encoding="UTF-8"?>
<svg width="70px" height="70px" viewBox="0 0 70 70" version="1.1" xmlns="http://www.w3.org/2000/svg" xmlns:xlink="http://www.w3.org/1999/xlink">
    <!-- Generator: Sketch 49 (51002) - http://www.bohemiancoding.com/sketch -->
    <title>购物车</title>
    <desc>Created with Sketch.</desc>
    <defs></defs>
    <g id="购物车" stroke="none" stroke-width="1" fill="none" fill-rule="evenodd">
        <g id="分组-35" transform="translate(-3.000000, 0.000000)" fill="#FFFFFF">
            <g id="Group-13">
                <g id="Group-12" transform="translate(0.892169, 0.000000)">
                    <path d="M44.7207347,31.0961381 L35.1033724,31.0961381 C33.330572,31.0961381 31.897585,29.6631512 31.897585,27.8903507 C31.897585,26.1175502 33.330572,24.6845633 35.1033724,24.6845633 L44.7207347,24.6845633 C46.4935352,24.6845633 47.9265222,26.1175502 47.9265222,27.8903507 C47.9265222,29.6631512 46.4935352,31.0961381 44.7207347,31.0961381" id="Fill-2"></path>
                    <path d="M60.1485868,15.8686478 L15.2675627,15.8686478 C13.4947622,15.8686478 12.0617752,14.4356608 12.0617752,12.6628604 C12.0617752,10.8900599 13.4947622,9.45707294 15.2675627,9.45707294 L60.1485868,9.45707294 C61.9213872,9.45707294 63.3543742,10.8900599 63.3543742,12.6628604 C63.3543742,14.4356608 61.9213872,15.8686478 60.1485868,15.8686478" id="Fill-4"></path>
                    <path d="M56.269584,51.1323096 L22.999922,51.1323096 C15.1168907,51.1323096 8.70531578,44.6598248 8.70531578,36.7062661 L8.70531578,10.2585198 C8.70531578,8.52098301 7.63137699,7.05273236 6.36509096,7.05273236 L3.24585978,7.05273236 C1.47305933,7.05273236 0.040072343,5.61974538 0.040072343,3.84694492 C0.040072343,2.07414447 1.47305933,0.641157487 3.24585978,0.641157487 L6.36509096,0.641157487 C11.189801,0.641157487 15.1168907,4.95614738 15.1168907,10.2585198 L15.1168907,36.7062661 C15.1168907,41.127047 18.65608,44.7207347 22.999922,44.7207347 L56.269584,44.7207347 C60.6166317,44.7207347 64.1558211,41.127047 64.1558211,36.7062661 L64.1558211,23.181049 C64.1558211,21.4114543 65.5888081,19.9752615 67.3616085,19.9752615 C69.134409,19.9752615 70.5673959,21.4114543 70.5673959,23.181049 L70.5673959,36.7062661 C70.5673959,44.6598248 64.1526153,51.1323096 56.269584,51.1323096" id="Fill-6"></path>
                    <path d="M22.2802227,59.1467782 C20.0714351,59.1467782 18.2729884,60.945225 18.2729884,63.1540125 C18.2729884,65.3628 20.0714351,67.1612468 22.2802227,67.1612468 C24.4890102,67.1612468 26.287457,65.3628 26.287457,63.1540125 C26.287457,60.945225 24.4890102,59.1467782 22.2802227,59.1467782 M22.2802227,71.969928 C17.4170431,71.969928 13.4643072,68.017192 13.4643072,63.1540125 C13.4643072,58.290833 17.4170431,54.3380971 22.2802227,54.3380971 C27.1434022,54.3380971 31.0961381,58.290833 31.0961381,63.1540125 C31.0961381,68.017192 27.1434022,71.969928 22.2802227,71.969928" id="Fill-8"></path>
                    <path d="M57.5438845,59.1467782 C55.3350969,59.1467782 53.5366502,60.945225 53.5366502,63.1540125 C53.5366502,65.3628 55.3350969,67.1612468 57.5438845,67.1612468 C59.752672,67.1612468 61.5511188,65.3628 61.5511188,63.1540125 C61.5511188,60.945225 59.752672,59.1467782 57.5438845,59.1467782 M57.5438845,71.969928 C52.6807049,71.969928 48.727969,68.017192 48.727969,63.1540125 C48.727969,58.290833 52.6807049,54.3380971 57.5438845,54.3380971 C62.407064,54.3380971 66.3597999,58.290833 66.3597999,63.1540125 C66.3597999,68.017192 62.407064,71.969928 57.5438845,71.969928" id="Fill-10"></path>
                </g>
            </g>
        </g>
    </g>
</svg>