<?xml version="1.0" encoding="UTF-8"?>
<svg width="55px" height="55px" viewBox="0 0 55 55" version="1.1" xmlns="http://www.w3.org/2000/svg" xmlns:xlink="http://www.w3.org/1999/xlink">
    <!-- Generator: Sketch 49 (51002) - http://www.bohemiancoding.com/sketch -->
    <title>首页1</title>
    <desc>Created with Sketch.</desc>
    <defs>
        <linearGradient x1="-1%" y1="0%" x2="100%" y2="100%" id="linearGradient-1">
            <stop stop-color="#FFDB5B" offset="0%"></stop>
            <stop stop-color="#FF7777" offset="100%"></stop>
        </linearGradient>
    </defs>
    <g id="Page-1" stroke="none" stroke-width="1" fill="none" fill-rule="evenodd">
        <g id="图标" transform="translate(-121.000000, -920.000000)" fill="url(#linearGradient-1)">
            <path d="M166,951.666667 L166,959.900371 C166,961.059964 165.059964,962 163.900371,962 L130.099629,962 C128.940036,962 128,961.059964 128,959.900371 L128,951.666667 C130.914836,951.666667 133.277778,949.353471 133.277778,946.5 C133.277778,943.646529 130.914836,941.333333 128,941.333333 L128,933.099629 C128,931.940036 128.940036,931 130.099629,931 L163.900371,931 C165.059964,931 166,931.940036 166,933.099629 L166,941.333333 C163.085164,941.333333 160.722222,943.646529 160.722222,946.5 C160.722222,949.353471 163.085164,951.666667 166,951.666667 Z M152.796944,940.3 C151.927249,940.3 151.222222,941.005027 151.222222,941.874722 L151.222222,951.125278 C151.222222,951.994973 151.927249,952.7 152.796944,952.7 L152.814167,952.7 C153.683862,952.7 154.388889,951.994973 154.388889,951.125278 L154.388889,941.874722 C154.388889,941.005027 153.683862,940.3 152.814167,940.3 L152.796944,940.3 Z M141.185833,940.3 C140.316138,940.3 139.611111,941.005027 139.611111,941.874722 L139.611111,951.125278 C139.611111,951.994973 140.316138,952.7 141.185833,952.7 L141.203056,952.7 C142.072751,952.7 142.777778,951.994973 142.777778,951.125278 L142.777778,941.874722 C142.777778,941.005027 142.072751,940.3 141.203056,940.3 L141.185833,940.3 Z" id="合并形状-copy-3"></path>
        </g>
    </g>
</svg>