<?xml version="1.0" encoding="UTF-8"?>
<svg width="55px" height="55px" viewBox="0 0 55 55" version="1.1" xmlns="http://www.w3.org/2000/svg" xmlns:xlink="http://www.w3.org/1999/xlink">
    <!-- Generator: Sketch 49 (51002) - http://www.bohemiancoding.com/sketch -->
    <title>首页1</title>
    <desc>Created with Sketch.</desc>
    <defs>
        <linearGradient x1="50%" y1="4.5226698%" x2="50%" y2="100%" id="linearGradient-1">
            <stop stop-color="#B2F6FF" offset="0%"></stop>
            <stop stop-color="#7BF4F6" offset="100%"></stop>
        </linearGradient>
        <filter x="-32.4%" y="-100.0%" width="164.9%" height="300.0%" filterUnits="objectBoundingBox" id="filter-2">
            <feGaussianBlur stdDeviation="4" in="SourceGraphic"></feGaussianBlur>
        </filter>
        <linearGradient x1="50%" y1="0%" x2="50%" y2="100%" id="linearGradient-3">
            <stop stop-color="#77FCFF" offset="0%"></stop>
            <stop stop-color="#41DFE4" offset="100%"></stop>
        </linearGradient>
    </defs>
    <g id="Page-1" stroke="none" stroke-width="1" fill="none" fill-rule="evenodd">
        <g id="图标" transform="translate(-391.000000, -920.000000)" fill-rule="nonzero">
            <g id="客服" transform="translate(396.000000, 925.000000)">
                <path d="M41,34 L41,36 C41,37.1045695 40.1045695,38 39,38 L6,38 C4.8954305,38 4,37.1045695 4,36 L4,34 C6.76142375,34 9,33.1045695 9,32 C9,30.8954305 6.76142375,30 4,30 L4,28 C4,26.8954305 4.8954305,26 6,26 L39,26 C40.1045695,26 41,26.8954305 41,28 L41,30 C38.2385763,30 36,30.8954305 36,32 C36,33.1045695 38.2385763,34 41,34 Z M28.5,30 C27.6715729,30 27,30.6715729 27,31.5 L27,32.5 C27,33.3284271 27.6715729,34 28.5,34 C29.3284271,34 30,33.3284271 30,32.5 L30,31.5 C30,30.6715729 29.3284271,30 28.5,30 Z M16.5,30 C15.6715729,30 15,30.6715729 15,31.5 L15,32.5 C15,33.3284271 15.6715729,34 16.5,34 C17.3284271,34 18,33.3284271 18,32.5 L18,31.5 C18,30.6715729 17.3284271,30 16.5,30 Z" id="合并形状" fill="url(#linearGradient-1)" opacity="0.36344401" filter="url(#filter-2)"></path>
                <path d="M36.8678287,17 L38,17 C40.209139,17 42,18.790861 42,21 L42,24 C42,26.209139 40.209139,28 38,28 L36.6999457,28 C35.3101347,34.846721 29.2568737,40 22,40 L22,37 C28.627417,37 34,31.627417 34,25 L34,19 C34,12.372583 28.627417,7 22,7 C15.372583,7 10,12.372583 10,19 L10,23 L10,28 L6,28 C3.790861,28 2,26.209139 2,24 L2,21 C2,18.790861 3.790861,17 6,17 L7.13217133,17 C8.10995569,9.66128108 14.3938463,4 22,4 C29.6061537,4 35.8900443,9.66128108 36.8678287,17 Z" id="合并形状" fill="url(#linearGradient-3)"></path>
                <path d="M22,10 C27.5228475,10 32,14.4771525 32,20 L32,24 C32,29.5228475 27.5228475,34 22,34 C16.4771525,34 12,29.5228475 12,24 L12,20 C12,14.4771525 16.4771525,10 22,10 Z M18,27 C18,29.209139 19.790861,31 22,31 C24.209139,31 26,29.209139 26,27 L18,27 Z" id="合并形状" fill="url(#linearGradient-3)"></path>
            </g>
        </g>
    </g>
</svg>