<?xml version="1.0" encoding="UTF-8"?>
<svg width="79px" height="79px" viewBox="0 0 79 79" version="1.1" xmlns="http://www.w3.org/2000/svg" xmlns:xlink="http://www.w3.org/1999/xlink">
    <!-- Generator: Sketch 49 (51002) - http://www.bohemiancoding.com/sketch -->
    <title>首页1</title>
    <desc>Created with Sketch.</desc>
    <defs></defs>
    <g id="Page-1" stroke="none" stroke-width="1" fill="none" fill-rule="evenodd">
        <g id="图标" transform="translate(-142.000000, -1345.000000)" fill="#FFFFFF">
            <g id="购物车" transform="translate(157.000000, 1358.000000)">
                <g id="分组-35" transform="translate(-2.142857, 0.000000)">
                    <g id="Group-13">
                        <g id="Group-12" transform="translate(0.637264, 0.000000)">
                            <path d="M31.943382,22.2115272 L25.0738375,22.2115272 C23.8075514,22.2115272 22.7839893,21.1879651 22.7839893,19.9216791 C22.7839893,18.655393 23.8075514,17.6318309 25.0738375,17.6318309 L31.943382,17.6318309 C33.209668,17.6318309 34.2332301,18.655393 34.2332301,19.9216791 C34.2332301,21.1879651 33.209668,22.2115272 31.943382,22.2115272" id="Fill-2"></path>
                            <path d="M42.9632763,11.3347484 L10.9054019,11.3347484 C9.63911587,11.3347484 8.61555374,10.3111863 8.61555374,9.04490027 C8.61555374,7.77861423 9.63911587,6.7550521 10.9054019,6.7550521 L42.9632763,6.7550521 C44.2295623,6.7550521 45.2531244,7.77861423 45.2531244,9.04490027 C45.2531244,10.3111863 44.2295623,11.3347484 42.9632763,11.3347484" id="Fill-4"></path>
                            <path d="M40.19256,36.5230783 L16.4285157,36.5230783 C10.797779,36.5230783 6.2180827,31.8998748 6.2180827,26.2187615 L6.2180827,7.32751414 C6.2180827,6.08641643 5.45098357,5.03766597 4.54649354,5.03766597 L2.31847127,5.03766597 C1.05218523,5.03766597 0.0286231021,4.01410384 0.0286231021,2.7478178 C0.0286231021,1.48153177 1.05218523,0.457969634 2.31847127,0.457969634 L4.54649354,0.457969634 C7.99271503,0.457969634 10.797779,3.54010527 10.797779,7.32751414 L10.797779,26.2187615 C10.797779,29.3764622 13.3257714,31.943382 16.4285157,31.943382 L40.19256,31.943382 C43.2975941,31.943382 45.8255865,29.3764622 45.8255865,26.2187615 L45.8255865,16.5578921 C45.8255865,15.2938959 46.8491486,14.2680439 48.1154347,14.2680439 C49.3817207,14.2680439 50.4052828,15.2938959 50.4052828,16.5578921 L50.4052828,26.2187615 C50.4052828,31.8998748 45.8232966,36.5230783 40.19256,36.5230783" id="Fill-6"></path>
                            <path d="M15.9144448,42.2476987 C14.3367394,42.2476987 13.0521346,43.5323035 13.0521346,45.1100089 C13.0521346,46.6877143 14.3367394,47.9723191 15.9144448,47.9723191 C17.4921502,47.9723191 18.776755,46.6877143 18.776755,45.1100089 C18.776755,43.5323035 17.4921502,42.2476987 15.9144448,42.2476987 M15.9144448,51.4070914 C12.4407451,51.4070914 9.61736231,48.5837086 9.61736231,45.1100089 C9.61736231,41.6363093 12.4407451,38.8129265 15.9144448,38.8129265 C19.3881444,38.8129265 22.2115272,41.6363093 22.2115272,45.1100089 C22.2115272,48.5837086 19.3881444,51.4070914 15.9144448,51.4070914" id="Fill-8"></path>
                            <path d="M41.1027746,42.2476987 C39.5250692,42.2476987 38.2404644,43.5323035 38.2404644,45.1100089 C38.2404644,46.6877143 39.5250692,47.9723191 41.1027746,47.9723191 C42.68048,47.9723191 43.9650848,46.6877143 43.9650848,45.1100089 C43.9650848,43.5323035 42.68048,42.2476987 41.1027746,42.2476987 M41.1027746,51.4070914 C37.629075,51.4070914 34.8056922,48.5837086 34.8056922,45.1100089 C34.8056922,41.6363093 37.629075,38.8129265 41.1027746,38.8129265 C44.5764743,38.8129265 47.3998571,41.6363093 47.3998571,45.1100089 C47.3998571,48.5837086 44.5764743,51.4070914 41.1027746,51.4070914" id="Fill-10"></path>
                        </g>
                    </g>
                </g>
            </g>
        </g>
    </g>
</svg>